<svg width="42" height="42" viewBox="0 0 42 42" fill="none" xmlns="http://www.w3.org/2000/svg">
<path opacity="0.4" d="M20.7435 41.487C32.1997 41.487 41.487 32.1999 41.487 20.7435C41.487 9.28718 32.1997 0 20.7435 0C9.28718 0 0 9.28718 0 20.7435C0 32.1999 9.28718 41.487 20.7435 41.487Z" fill="#5F5F60"/>
<path d="M20.7435 10.2264C16.4496 10.2264 12.9647 13.7113 12.9647 18.0051C12.9647 22.2161 16.2629 25.6388 20.6398 25.7632H20.8265H20.9717H21.0132C25.2034 25.618 28.5016 22.2161 28.5223 18.0051C28.5223 13.7113 25.0374 10.2264 20.7435 10.2264Z" fill="#5F5F60"/>
<path d="M34.8091 35.9899C31.1167 39.3919 26.1798 41.487 20.745 41.487C15.3102 41.487 10.3732 39.3919 6.68086 35.9899C7.17871 34.1023 8.52703 32.3806 10.4977 31.053C16.1606 27.2777 25.3708 27.2777 30.9923 31.053C32.9836 32.3806 34.3112 34.1023 34.8091 35.9899Z" fill="#5F5F60"/>
</svg>
